<!DOCTYPE svg PUBLIC "-//W3C//DTD SVG 20010904//EN" "http://www.w3.org/TR/2001/REC-SVG-20010904/DTD/svg10.dtd">
<svg version="1.0" xmlns="http://www.w3.org/2000/svg" width="176px" height="70px" viewBox="0 0 1760 700" preserveAspectRatio="xMidYMid meet">
<g id="layer101" fill="#ffffff" stroke="none">
 <path d="M1448 591 l-265 -106 -205 85 c-167 70 -213 85 -246 82 -28 -3 -140 -58 -383 -190 -334 -182 -344 -188 -344 -217 0 -38 -30 -39 432 18 l362 44 138 -138 c75 -77 141 -146 146 -154 4 -8 14 -15 20 -15 7 0 158 146 336 324 287 288 322 326 312 344 -6 11 -16 22 -24 25 -7 3 -133 -43 -279 -102z m-487 -101 c211 -89 246 -99 265 -80 11 11 406 172 410 167 2 -2 -117 -123 -265 -271 l-267 -267 -132 136 c-73 75 -132 143 -132 151 0 8 -4 14 -9 14 -5 0 -157 -18 -337 -40 -180 -21 -330 -38 -331 -36 -4 4 568 316 578 316 3 0 102 -40 220 -90z"/>
 </g>

</svg>